<?xml version="1.0" encoding="utf-8"?>
<!-- Generator: Adobe Illustrator 26.4.1, SVG Export Plug-In . SVG Version: 6.00 Build 0)  -->
<svg version="1.1" id="Livello_1" xmlns="http://www.w3.org/2000/svg" xmlns:xlink="http://www.w3.org/1999/xlink" x="0px" y="0px"
	 viewBox="0 0 379 448" style="enable-background:new 0 0 379 448;" xml:space="preserve">
<style type="text/css">
	.st0{fill:#FFFF00;}
</style>
<g>
	<path class="st0" d="M275.2,324.7L378.7,93.9v230.8H275.2z"/>
	<path class="st0" d="M251.3,11.7h14.2c58.4-0.1,40.1,40.5,21.4,82.2L218,247.5L147.7,93.9c-14.7-30.2-48.5-82.2,2.4-82.2h33.1
		l0.3-11.2L92.2,1.6L0.3,0.4v11.2h27.3c21,0,43.7,62.7,52.4,82.2l103.2,230.9l11.4,0.1l79.5-175.3c14.1-31.1,38.8-89.2,56.7-113.7
		C343,19,358.6,11.9,371.5,11.9l7.2-0.4V0.4l-60.1,0.3L251,0.5L251.3,11.7z"/>
	<path class="st0" d="M103.8,324.7L0.3,93.9v230.8H103.8z"/>
	<path class="st0" d="M1.3,337l9.2,14.4v11h2.3v-11L22,337h-2.7l-7.6,12h-0.2L4,337H1.3z M29,362.8c4.9,0,8.4-4,8.4-9.9
		S33.9,343,29,343s-8.4,4-8.4,9.9C20.6,358.8,24.1,362.8,29,362.8z M29,360.8c-4,0-6.2-3.6-6.2-7.8c0-4.3,2.2-7.9,6.2-7.9
		s6.2,3.6,6.2,7.9C35.2,357.2,33,360.8,29,360.8z M52.8,355.1c0,3.5-2.6,5.4-5.2,5.4c-2.8,0-4.7-2-4.7-5v-12.2h-2.2v12.4
		c0,4.5,2.6,7,6.3,7c2.8,0,4.8-1.5,5.7-3.4h0.2v3.2h2.2v-19.1h-2.2L52.8,355.1L52.8,355.1z M59.3,362.4h2.2v-12.3
		c0-2.8,2.2-4.9,5.2-4.9c0.6,0,1.1,0.1,1.3,0.1v-2.2c-0.3,0-0.8,0-1.2,0c-2.4,0-4.4,1.3-5.2,3.2h-0.2v-2.9h-2.2L59.3,362.4
		L59.3,362.4z M78.5,362.4h2.2v-19.1h-2.2V362.4z M79.7,340c0.9,0,1.7-0.7,1.7-1.6s-0.8-1.6-1.7-1.6s-1.7,0.7-1.7,1.6
		S78.8,340,79.7,340z M85,362.4h2.2v-12.2c0-3,2-5.1,4.6-5.1s4.1,1.7,4.1,4.3v13h2.3v-12.6c0-2.7,1.6-4.7,4.5-4.7
		c2.5,0,4.2,1.5,4.2,4.5v12.8h2.2v-12.8c0-4.3-2.2-6.5-5.7-6.5c-2.8,0-4.8,1.4-5.7,3.5h-0.2c-0.8-2.2-2.5-3.5-5.2-3.5
		c-2.5,0-4.4,1.2-5.1,3.2H87v-2.9h-2V362.4z M118.8,362.9c3.2,0,5.1-1.8,5.9-3.5h0.1v3h2.2v-13c0-5.1-3.9-6.4-6.8-6.4
		s-5.9,1.2-7.2,4.3l2.1,0.8c0.7-1.6,2.4-3,5.2-3c2.9,0,4.5,1.6,4.5,4.2v0.4c0,1.4-1.8,1.5-5,1.9c-4.3,0.5-7.3,1.7-7.3,5.5
		C112.6,360.8,115.4,362.9,118.8,362.9z M119.1,360.8c-2.5,0-4.4-1.3-4.4-3.6c0-2.3,1.9-3.3,5.1-3.7c1.6-0.2,4.4-0.5,5-1.2v2.8
		C124.9,358.2,122.7,360.8,119.1,360.8z M138.7,370c4.5,0,7.9-2.2,7.9-7.1v-19.6h-2.2v3.6h-0.2c-0.8-1.7-2.4-3.9-5.9-3.9
		c-4.7,0-7.9,4-7.9,9.8c0,5.9,3.3,9.4,7.9,9.4c3.4,0,5.1-2,5.9-3.7h0.2v4.3c0,3.6-2.3,5.2-5.7,5.2c-3.3,0-4.8-1.6-5.6-3l-1.8,1.2
		C132.4,368.3,134.8,370,138.7,370z M138.5,360.2c-3.8,0-5.9-3-5.9-7.4c0-4.3,2.1-7.7,5.9-7.7c3.7,0,5.8,3.2,5.8,7.7
		C144.4,357.4,142.2,360.2,138.5,360.2z M158.6,362.8c3.8,0,6.4-2.1,7.3-4.5l-2.1-0.7c-0.7,1.7-2.5,3.1-5.2,3.1
		c-3.9,0-6.4-2.8-6.5-7.3h14.2v-1.1c0-6.4-3.9-9.4-8.1-9.4c-4.9,0-8.4,4.1-8.4,9.9C149.9,358.8,153.2,362.8,158.6,362.8z
		 M152.1,351.6c0.2-3.6,2.6-6.5,6.1-6.5c3.4,0,5.8,2.8,5.8,6.5H152.1z"/>
	<path class="st0" d="M236.5,427.7c0-8-4.6-13.1-11-13.1s-11,5.1-11,13.1s4.6,13.1,11,13.1S236.5,435.7,236.5,427.7z M234.3,427.7
		c0,6.8-3.7,10.9-8.8,10.9c-5,0-8.8-4.1-8.8-10.9c0-6.9,3.8-10.9,8.8-10.9C230.6,416.8,234.3,420.8,234.3,427.7z M252.3,433.1
		c0,3.5-2.6,5.4-5.2,5.4c-2.8,0-4.7-2-4.7-5v-12.2h-2.2v12.4c0,4.5,2.6,7,6.3,7c2.8,0,4.8-1.5,5.7-3.4h0.2v3.2h2.2v-19.1h-2.2v11.7
		H252.3z M258.8,440.4h2.2v-12.3c0-2.8,2.2-4.9,5.2-4.9c0.6,0,1.1,0.1,1.3,0.1v-2.2c-0.3,0-0.8,0-1.2,0c-2.4,0-4.4,1.3-5.2,3.2h-0.2
		v-2.9h-2.1L258.8,440.4L258.8,440.4z M277.9,447.6h2.2v-10.7h0.2c0.8,1.8,2.4,3.9,5.9,3.9c4.7,0,7.9-4,7.9-9.9s-3.2-9.9-7.9-9.9
		c-3.5,0-5.1,2.2-5.8,3.9H280v-3.6h-2.2v26.3H277.9z M280.1,430.9c0-4.6,2.1-7.8,5.8-7.8c3.8,0,5.9,3.4,5.9,7.8s-2.1,7.9-5.9,7.9
		C282.2,438.8,280.1,435.5,280.1,430.9z M297.3,440.4h2.2v-12.3c0-2.8,2.2-4.9,5.2-4.9c0.6,0,1.1,0.1,1.3,0.1v-2.2
		c-0.3,0-0.8,0-1.2,0c-2.4,0-4.5,1.3-5.2,3.2h-0.2v-2.9h-2.2v19H297.3z M308.2,440.4h2.2v-19.1h-2.2V440.4z M309.4,418
		c0.9,0,1.7-0.7,1.7-1.6s-0.8-1.6-1.7-1.6c-0.9,0-1.7,0.7-1.7,1.6C307.7,417.3,308.5,418,309.4,418z M322.2,440.8
		c4.9,0,8.4-4,8.4-9.9s-3.5-9.9-8.4-9.9s-8.4,4-8.4,9.9C313.8,436.8,317.2,440.8,322.2,440.8z M322.2,438.8c-4,0-6.2-3.6-6.2-7.8
		c0-4.3,2.2-7.9,6.2-7.9s6.2,3.6,6.2,7.9C328.3,435.2,326.1,438.8,322.2,438.8z M333.8,440.4h2.2v-12.3c0-2.8,2.2-4.9,5.2-4.9
		c0.6,0,1.1,0.1,1.3,0.1v-2.2c-0.3,0-0.8,0-1.2,0c-2.4,0-4.5,1.3-5.2,3.2H336v-2.9h-2.2V440.4z M344.8,440.4h2.2v-19.1h-2.2V440.4z
		 M345.9,418c0.9,0,1.7-0.7,1.7-1.6s-0.8-1.6-1.7-1.6s-1.7,0.7-1.7,1.6C344.2,417.3,345,418,345.9,418z M358.8,421.3h-4v-4.6h-2.2
		v4.6h-2.8v1.9h2.8V436c0,3.1,2.5,4.7,4.9,4.7c0.9,0,1.5-0.2,2-0.3l-0.5-2c-0.3,0.1-0.7,0.2-1.3,0.2c-1.5,0-2.9-0.7-2.9-3.1v-12.2h4
		V421.3z M363.8,447.6c2.4,0,4.1-1.4,5.2-4.1l8.1-22.1h-2.4l-5.7,16.2h-0.2l-5.7-16.2h-2.4l7,19.3l-0.7,1.9
		c-1.1,2.9-2.5,3.4-4.8,2.7l-0.6,2C362.1,447.4,362.9,447.6,363.8,447.6z"/>
	<path class="st0" d="M5.1,367.8v43.6h6.3v-31.6h0.4l12.9,31.5h5.2l12.9-31.5h0.4v31.6h6.3v-43.6h-8l-13.9,33.9H27l-13.9-33.9H5.1z
		 M70.4,412.1c9.2,0,15.3-6.8,15.3-16.9c0-10.2-6-16.9-15.3-16.9c-9.2,0-15.3,6.8-15.3,16.9C55.2,405.3,61.2,412.1,70.4,412.1z
		 M70.4,406.7c-6,0-8.8-5.3-8.8-11.5c0-6.3,2.8-11.6,8.8-11.6s8.8,5.3,8.8,11.6C79.2,401.5,76.4,406.7,70.4,406.7z M103.2,412.1
		c6,0,8.3-3.6,9.5-5.7h0.5v5.1h6.2v-43.6H113V384h-0.4c-1.1-2-3.3-5.7-9.4-5.7c-7.9,0-13.7,6.2-13.7,16.9
		C89.6,405.7,95.3,412.1,103.2,412.1z M104.6,406.6c-5.7,0-8.7-5-8.7-11.6c0-6.5,2.9-11.4,8.7-11.4c5.6,0,8.5,4.5,8.5,11.4
		C113.2,401.9,110.1,406.6,104.6,406.6z M140.8,412.1c7.1,0,12.2-3.5,13.6-8.8l-6-1.1c-1.2,3.1-3.9,4.7-7.5,4.7
		c-5.5,0-9.1-3.5-9.3-9.8h23.3v-2.3c0-11.8-7.1-16.4-14.5-16.4c-9.1,0-15.1,6.9-15.1,17C125.3,405.4,131.2,412.1,140.8,412.1z
		 M131.6,392.2c0.3-4.6,3.6-8.7,8.8-8.7c4.9,0,8.2,3.7,8.2,8.7H131.6z M160.2,411.4h6.4v-20c0-4.3,3.3-7.4,7.8-7.4
		c1.3,0,2.8,0.2,3.3,0.4v-6.1c-0.6-0.1-1.9-0.1-2.7-0.1c-3.8,0-7.1,2.2-8.3,5.7h-0.3v-5.2h-6.2V411.4z M187.8,392
		c0-5.2,3.2-8.2,7.6-8.2c4.3,0,6.9,2.8,6.9,7.6v20h6.4v-20.8c0-8.1-4.5-12.3-11.1-12.3c-4.9,0-8.1,2.3-9.7,5.8h-0.4v-5.3h-6.1v32.7
		h6.4L187.8,392L187.8,392z M221.3,367.8h-8.7l15.4,43.6h9.8l15.4-43.6h-8.7l-11.3,34.3h-0.4L221.3,367.8z M255.5,411.4h7.7v-32.7
		h-7.7L255.5,411.4L255.5,411.4z M259.4,374c2.5,0,4.5-1.9,4.5-4.2c0-2.3-2-4.2-4.5-4.2s-4.5,1.9-4.5,4.2
		C254.9,372.2,256.9,374,259.4,374z M294.1,387.3c-1.1-5.5-5.5-9.1-13.2-9.1c-7.9,0-13.3,3.9-13.2,9.9c0,4.8,2.9,7.9,9.2,9.2
		l5.6,1.2c3,0.7,4.4,1.9,4.4,3.7c0,2.2-2.4,3.9-6.1,3.9c-3.5,0-5.8-1.5-6.5-4.5l-7.5,0.7c1,6,6,9.6,14,9.6c8.2,0,14-4.2,14-10.4
		c0-4.7-3-7.5-9.2-8.9l-5.6-1.2c-3.3-0.7-4.6-1.9-4.6-3.8c0-2.2,2.4-3.8,5.6-3.8c3.6,0,5.4,1.9,6,4.1L294.1,387.3z M298.1,411.4h7.7
		v-32.7h-7.7V411.4z M302,374c2.5,0,4.5-1.9,4.5-4.2c0-2.3-2-4.2-4.5-4.2s-4.5,1.9-4.5,4.2C297.5,372.2,299.5,374,302,374z
		 M325,412.1c9.6,0,15.7-6.8,15.7-16.9s-6.1-16.9-15.7-16.9s-15.7,6.8-15.7,16.9C309.4,405.3,315.4,412.1,325,412.1z M325.1,405.9
		c-5.3,0-7.9-4.7-7.9-10.7s2.6-10.8,7.9-10.8c5.2,0,7.8,4.8,7.8,10.8S330.3,405.9,325.1,405.9z M352,392.2c0-4.7,2.9-7.5,6.9-7.5
		s6.4,2.6,6.4,7v19.6h7.7v-20.8c0-7.8-4.5-12.3-11.2-12.3c-4.9,0-8.3,2.3-9.8,6h-0.4v-5.6h-7.4v32.7h7.7L352,392.2L352,392.2z"/>
</g>
</svg>
